<?xml version="1.0" encoding="UTF-8" standalone="no"?>
<!-- Created with Inkscape (http://www.inkscape.org/) -->

<svg
   version="1.1"
   id="svg1"
   width="556"
   height="202"
   viewBox="0 0 555.99999 202"
   xml:space="preserve"
   xmlns="http://www.w3.org/2000/svg"
   xmlns:svg="http://www.w3.org/2000/svg"><defs
     id="defs1" /><g
     id="g1"
     transform="matrix(0.96665772,0,0,0.94276638,-16.476605,-31.955429)"
     style="stroke-width:0.252834"><path
       id="path1"
       style="display:inline;fill:#000000;stroke:none;stroke-width:1.01133;stroke-linecap:round;paint-order:stroke fill markers"
       d="m 47.0625,174.38477 -5e-4,8.14062 H 17.044922 v 48.97852 l 30.017578,0.002 V 248.1582 H 57.238281 L 57.238,231.50586 h 19.650672 c 5.585507,2.3e-4 10.113514,-4.52777 10.113281,-10.11328 V 182.52539 H 57.238281 v -8.14062 z m 10.1755,17.48874 19.697547,-4.6e-4 v 30.20898 L 57.238,222.08249 Z m -29.827844,10e-4 19.651844,-4.9e-4 V 222.083 l -19.651844,4.9e-4 z" /><path
       id="path1-8"
       style="display:inline;fill:#000000;stroke:none;stroke-width:1.01133;stroke-linecap:round;paint-order:stroke fill markers"
       d="m 214.24258,174.385 -5e-4,8.14062 H 184.225 v 48.97852 l 30.01758,0.002 v 16.65229 h 10.17578 l -2.8e-4,-16.65234 h 19.65067 c 5.58551,2.3e-4 10.11351,-4.52777 10.11328,-10.11328 V 182.52562 H 224.41836 V 174.385 Z m 10.1755,17.48874 19.69755,-4.6e-4 v 30.20898 l -19.69755,4.6e-4 z m -29.82784,0.001 19.65184,-4.9e-4 v 30.20898 l -19.65184,4.9e-4 z" /><path
       id="path2"
       style="display:inline;fill:#000000;stroke:none;stroke-width:1.01133;stroke-linecap:round;paint-order:stroke fill markers"
       d="m 100.73438,177.72266 v 69.07422 h 60.1875 a 10.68497,10.68497 0 0 0 10.68554,-10.6836 v -58.39062 z m 10.25195,9.44336 h 50.82031 v 49.91796 h -50.82031 z m 4.50781,5.28125 v 9.41211 h 16.08984 v 4.35156 h -16.08984 v 9.41211 h 16.08984 v 6.6582 h -16.08984 v 9.41211 h 41.59375 v -13.39844 h -9.4043 v 3.98633 h -6.6875 v -6.6582 h 16.0918 v -9.41211 h -16.0918 v -4.35156 h 16.08985 v -9.41211 z" /><path
       id="path3"
       style="display:inline;fill:#000000;stroke:none;stroke-width:1.01133;stroke-linecap:round;paint-order:stroke fill markers"
       d="m 297.53711,174.89453 v 8.94531 h -28.07422 v 29.97657 h -4.85742 v 9.79297 h 28.78125 c 0,0 -5.6117,7.32999 -12.99219,10.14843 -6.88585,2.62955 -15.78906,3.84375 -15.78906,3.84375 v 9.41211 c 0,0 11.13471,-1.0804 20.33203,-4.23437 9.22925,-3.16492 17.78711,-11.91993 17.78711,-11.91992 0,0 8.86745,7.92421 15.84961,11.13476 8.36526,3.84652 22.04687,5.01953 22.04687,5.01953 v -9.41211 c 0,0 -9.74711,-0.59062 -18.61328,-5.32226 -4.59355,-2.45146 -10.25195,-8.66993 -10.25195,-8.66992 h 28.86523 v -9.79297 h -4.0625 V 183.83984 H 307.8418 v -8.94531 z m -18.45117,18.20899 h 18.45117 v 20.95507 h -18.45117 z m 28.75586,0 h 18.73242 v 20.95507 H 307.8418 Z" /><path
       id="rect3"
       style="display:inline;fill:#000000;stroke:none;stroke-width:1.01133;stroke-linecap:round;paint-order:stroke fill markers"
       d="m 379.51562,175.27539 -0.008,6.04492 H 348.9707 v 48.56836 h 30.48047 l -0.0137,10.76953 a 6.451747,6.451747 0 0 0 6.45312,6.45899 h 37.71094 v -9.42383 h -31.98828 a 2.1409706,2.1409706 0 0 1 -2.14062,-2.14063 v -5.66406 h 20.83789 a 8.8142013,8.8142013 0 0 0 8.81445,-8.81445 v -39.75391 h -29.65234 v -6.04492 z m -20.82421,14.75391 h 20.80664 l -0.0137,10.93945 h -20.79297 z m 30.78125,0 h 19.84179 v 10.93945 h -19.84179 z m -30.78125,19.84375 h 20.7832 l -0.0137,11.44726 h -20.76953 z m 30.78125,0 h 19.84179 v 11.44726 h -19.84179 z" /><path
       id="path5"
       style="display:inline;fill:#000000;stroke:none;stroke-width:1.01133;stroke-linecap:round;paint-order:stroke fill markers"
       d="m 446.37695,175.29492 -7.73633,6.56641 7.69141,7.10351 h -14.52539 v 9.26563 h 15.46875 c 0,0 -4.12381,9.80147 -8.69531,14.12695 -2.75675,2.6084 -6.77344,6.20899 -6.77344,6.20899 v 13.40039 l 12.14063,-10.80274 v 25.36328 h 11.15429 V 215.4082 l 6.74414,6.7461 v -12.05274 c 0,0 -2.91137,-1.94873 -6.38476,-5.91601 0,0 5.05404,-10.00414 5.30664,-15.22071 h -10.60742 l 5.30078,-4.13672 z m 17.25196,2.39649 v 44.46289 h 9.93945 v -35.04883 h 20.91406 l -0.002,35.04883 h 10.30469 v -44.46289 z m 15.26171,15.90039 v 17.71484 c 0,1.84511 -3.34433,10.93613 -7.44921,18.56055 -6.68301,12.41303 -8.83204,16.66015 -8.83203,16.66015 h 11.08593 l 8.52149,-15.46484 v 9.02539 c -6.4e-4,3.55591 2.88159,6.43901 6.4375,6.43945 h 18.98242 v -8.67187 h -12.93555 c -1.49607,-1.6e-4 -2.70883,-1.21292 -2.70898,-2.70899 v -12.93554 h -2.67188 V 193.5918 Z" /><path
       id="path8"
       style="display:inline;fill:#000000;stroke:none;stroke-width:1.01133;stroke-linecap:round;paint-order:stroke fill markers"
       d="m 539.82422,175.02539 -17.17774,21.23828 h -6.48632 v 9.66602 h 63.70507 c 1.13115,0.98164 3.52539,3.5 3.52539,3.5 l 8.83204,-5.28125 c 0,0 -6.56819,-7.85826 -10.29688,-11.85156 -2.84308,-3.04486 -9.80078,-9.64454 -9.80078,-9.64454 l -8.64844,5.59766 c 0,0 7.46023,5.78944 9.06836,8.39453 h -36.28906 l 17.04102,-21.61914 z m -19.78711,37.05469 v 34.7168 h 56.69922 a 9.4977516,9.4977516 0 0 0 9.49805,-9.4961 v -25.2207 z m 10.24023,9.93164 h 45.66407 v 15.00781 h -45.66407 z" /><g
       id="g9"
       transform="matrix(0.44937549,0,0,0.44937549,79.511,33.895385)"
       style="display:inline;stroke-width:0.562633"><path
         d="m 846.3033,0 c -2.30059,0 -4.36694,1.4075976 -5.20913,3.5484877 L 781.66384,154.62167 723.62941,7.0969831 C 721.94502,2.8151979 717.81233,0 713.21114,0 H 454.91623 v 54.501305 c 0,3.091533 2.50615,5.597718 5.59771,5.597718 h 73.88041 V 227.26075 h 60.43542 c 3.0915,0 5.59772,-2.50619 5.59772,-5.59772 V 60.099023 h 69.06853 c 2.28294,0 4.33711,1.386338 5.19123,3.503463 l 66.02332,163.658254 h 78.12868 c 2.28288,0 4.33705,-1.38632 5.19111,-3.50343 L 914.29901,0 Z"
         id="path1-9"
         style="stroke-width:1.11106" /><rect
         x="912.16034"
         y="140.19064"
         class="st0"
         width="87.839653"
         height="87.839653"
         id="rect1"
         style="stroke-width:1.11106" /><path
         d="m 358.42902,168.8641 c -37.23363,0 -68.1357,-24.71578 -68.1357,-54.61957 0,-29.903795 28.53097,-54.145507 63.72586,-54.145507 h 78.11337 c 3.09156,0 5.59772,-2.506154 5.59772,-5.597718 V 0 h -83.71109 c -74.25947,0 -134.45867,51.149038 -134.45867,114.24453 0,63.09549 64.60904,114.66766 138.86851,114.66766 33.06117,0 60.03484,-6.51924 88.27787,-17.45216 l -22.77982,-56.42435 c -21.08711,8.53802 -40.39853,13.82842 -65.49805,13.82842 z"
         id="path2-2"
         style="stroke-width:1.11106" /><path
         d="m 138.86851,168.8641 c -37.23363,0 -68.135715,-24.71578 -68.135715,-54.61957 0,-29.903795 28.53097,-54.145507 63.725855,-54.145507 h 78.11338 c 3.09156,0 5.59771,-2.506154 5.59771,-5.597718 V 0 H 134.45865 C 60.199183,0 0,51.149038 0,114.24453 c 0,63.09549 64.609052,114.66766 138.86851,114.66766 33.06117,0 60.03483,-6.51924 88.27786,-17.45216 l -22.77982,-56.42435 c -21.08712,8.53802 -40.39852,13.82842 -65.49804,13.82842 z"
         id="path3-7"
         style="stroke-width:1.11106" /></g></g><style
     type="text/css"
     id="style1">
	.st0{fill:#E80413;}
</style></svg>
