<?xml version="1.0" encoding="UTF-8"?>
<svg width="228.42" height="117.13" version="1.1" viewBox="0 0 228.42 117.13" xml:space="preserve" xmlns="http://www.w3.org/2000/svg">
<title>Dezeen</title>
<desc>British architecture, interior, and graphic design magazine</desc>
<g fill="#090909"><path d="m32.69 22.4a18.43 18.43 0 0 0-12.93-5c-11.68 0-19.76 10.7-19.76 23.81s8.08 23.79 19.76 23.79c6.55 0 10.06-2.25 12.75-5.48h0.18v4.4h11v-63.92h-11zm-10.42 32.55c-8.26 0-10.69-7.19-10.78-13.74 0.09-6.56 2.51-13.74 10.78-13.74s10.68 7.18 10.77 13.74c-0.09 6.55-2.51 13.74-10.77 13.74z"/><path d="m82.88 48.48c-1.08 1.53-4.49 6.47-13.11 6.47a11.55 11.55 0 0 1-11.77-11.14h33.58c0-16.25-6.64-26.4-21.82-26.4-14.72-0.01-23.25 10.24-23.25 23.8s8.53 23.79 23.26 23.79c12.39 0 18.94-5.93 22.36-11.14zm-13.11-22.08c7.36 0 10.33 6.55 10.33 9h-22.1a11.69 11.69 0 0 1 11.77-9z"/><g transform="translate(50.95 69.31)"><polygon points="38.753 9.753 38.753 1.313 2.743 1.313 2.743 10.834 24.293 10.834 0.233 38.313 0.233 46.753 38.753 46.753 38.753 37.233 14.953 37.233"/><path d="m63.353 37.774a11.54 11.54 0 0 1-11.76-11.13h33.58c0-16.25-6.64-26.4-21.82-26.4-14.73 0-23.26 10.24-23.26 23.79s8.53 23.79 23.26 23.79c12.39 0 18.94-5.93 22.36-11.14l-9.25-5.39c-1.08 1.54-4.49 6.48-13.11 6.48zm0-28.56c7.36 0 10.33 6.56 10.33 9h-22.09a11.69 11.69 0 0 1 11.76-9z"/><path d="m112.23 37.774a11.55 11.55 0 0 1-11.76-11.13h33.58c0-16.25-6.65-26.4-21.82-26.4-14.73 0-23.26 10.24-23.26 23.79s8.57 23.79 23.26 23.79c12.39 0 18.94-5.93 22.36-11.14l-9.25-5.39c-1.04 1.54-4.46 6.48-13.11 6.48zm0-28.56c7.36 0 10.32 6.56 10.32 9h-22.05a11.69 11.69 0 0 1 11.73-9z"/><path d="m161.83 0.23349a15.82 15.82 0 0 0-12.39 5.57h-0.21v-4.49h-11v45.43h11v-24c0-8.35 4.4-11.94 9.7-11.94 5.66 0 7.54 4 7.54 8.17v27.75h11v-31.04c-0.02-9.97-4.87-15.45-15.64-15.45z"/></g>
</g>
></svg>
