<?xml version="1.0" encoding="UTF-8"?>
<!DOCTYPE svg PUBLIC "-//W3C//DTD SVG 1.1//EN" "http://www.w3.org/Graphics/SVG/1.1/DTD/svg11.dtd">
<svg fill="#232527" viewBox="0 0 57.582 9.842" xmlns="http://www.w3.org/2000/svg">
 <path d="m6.41 0v3.91h-4.44v-3.91h-1.967v9.692h1.967v-3.936h4.44v3.936h1.967v-9.692zm11.07 5.55c0 1.576-.782 2.417-2.203 2.417-1.429 0-2.216-.865-2.216-2.484v-5.475h-1.966v5.542c0 2.727 1.515 4.29 4.156 4.29 2.666 0 4.195-1.593 4.195-4.37v-5.468h-1.966zm22.73 1.11-2.201-6.665h-1.604l-2.2 6.665-2.142-6.66h-2.092l3.377 9.688h1.628l2.205-6.364 2.203 6.364h1.642l3.369-9.688h-2.039zm7.71-1.14h3.577v-1.765h-3.577v-1.984h5.192v-1.765h-7.132v9.679h7.319v-1.765h-5.379zm7.72 4.157h1.94v-9.679h-1.94zm-30.09-7.227 1.402 3.245h-.005l.095.224h-2.974l.094-.224h-.002zm2.223 5.217.87 2.017h2.061l-4.23-9.63-.038-.057h-1.719l-4.27 9.687h2.007l.824-1.876.059-.141z"/>
</svg>
