<svg width="34" height="34" viewBox="0 0 34 34" fill="none" xmlns="http://www.w3.org/2000/svg">
<path d="M12.9197 4.76001C6.79973 4.76001 2.71973 10.2 2.71973 17C2.71973 23.8 6.79973 29.24 12.9197 29.24C14.9597 29.24 16.6597 28.56 18.0197 27.2C14.9597 26.52 12.5797 22.1 12.5797 17C12.5797 11.9 14.9597 7.48001 18.0197 6.80001C16.6597 5.44001 14.9597 4.76001 12.9197 4.76001Z" fill="#3E2A34"/>
<path opacity="0.78" d="M21.0805 4.76001C19.0405 4.76001 17.3405 5.44001 15.9805 6.80001C19.0405 7.48001 21.4205 11.9 21.4205 17C21.4205 22.1 19.0405 26.52 15.9805 27.2C17.3405 28.56 19.0405 29.24 21.0805 29.24C27.2005 29.24 31.2805 23.8 31.2805 17C31.2805 10.2 27.2005 4.76001 21.0805 4.76001Z" fill="#3E2A34"/>
</svg>
